HIERARCHY
ROOT pelvis
{
  OFFSET 0 100 0
  CHANNELS 6 Xposition Yposition Zposition Zrotation Xrotation Yrotation
  JOINT pelvis_right_femur
  {
    OFFSET -10.78128 -3.44521 -0.5502486
    CHANNELS 3 Zrotation Xrotation Yrotation
    JOINT right_femur_tibia
    {
      OFFSET -0.8047443 -44.0398 -0.1307829
      CHANNELS 3 Zrotation Xrotation Yrotation
      JOINT right_tibia_foot
      {
        OFFSET 3.006224 -47.83518 -5
        CHANNELS 3 Zrotation Xrotation Yrotation
        End Site
        {
          OFFSET 0 -5 15
        }
      }
    }
  }
  JOINT pelvis_left_femur
  {
    OFFSET 10.78128 -3.44521 -0.5502486
    CHANNELS 3 Zrotation Xrotation Yrotation
    JOINT left_femur_tibia
    {
      OFFSET 0.8047443 -44.0398 -0.1307829
      CHANNELS 3 Zrotation Xrotation Yrotation
      JOINT left_tibia_foot
      {
        OFFSET -4.370144 -48.10324 -4.275266
        CHANNELS 3 Zrotation Xrotation Yrotation
        End Site
        {
          OFFSET 0 -5 15
        }
      }
    }
  }
  JOINT pelvis_spine1
  {
    OFFSET 0 6.468898 -3.129235
    CHANNELS 3 Zrotation Xrotation Yrotation
    JOINT spine1
    {
      OFFSET 0 23.15396 4.99043
      CHANNELS 3 Zrotation Xrotation Yrotation
      JOINT spine2
      {
        OFFSET 0 20.79997 -5.064912
        CHANNELS 3 Zrotation Xrotation Yrotation
        JOINT neck
        {
          OFFSET 0 14.38658 9.616178
          CHANNELS 3 Zrotation Xrotation Yrotation
          End Site
          {
            OFFSET 0 20 0
          }
        }
      }
      JOINT right_manubrium
      {
        OFFSET -5.722621 16.35077 3.967754
        CHANNELS 3 Zrotation Xrotation Yrotation
        JOINT right_clavicle
        {
          OFFSET -13.16364 1.694482 -4.693211
          CHANNELS 3 Zrotation Xrotation Yrotation
          JOINT right_humerus
          {
            OFFSET -28.5034 -0.3100689 -2.792744
            CHANNELS 3 Zrotation Xrotation Yrotation
            JOINT right_radius
            {
              OFFSET -25.15693 0.02248979 -1.271978
              CHANNELS 3 Zrotation Xrotation Yrotation
              End Site
              {
                OFFSET -15 0 0
              }
            }
          }
        }
      }
      JOINT left_manubrium
      {
        OFFSET 5.722621 16.35077 3.967754
        CHANNELS 3 Zrotation Xrotation Yrotation
        JOINT left_clavicle
        {
          OFFSET 13.16364 1.694482 -4.693211
          CHANNELS 3 Zrotation Xrotation Yrotation
          JOINT left_humerus
          {
            OFFSET 29.39168 -1.063119 -2.237045
            CHANNELS 3 Zrotation Xrotation Yrotation
            JOINT left_radius
            {
              OFFSET 24.59957 -0.9528479 0.9047498
              CHANNELS 3 Zrotation Xrotation Yrotation
              End Site
              {
                OFFSET 15 -0 -0
              }
            }
          }
        }
      }
    }
  }
}
MOTION
Frames: 11
Frame Time: 0.0416666666667
0 103.5113 0 1.230491 -2.332677 0.08747223 2.66126 -14.96202 6.783054 -0 37.04919 -0 -6.211625 -16.44429 -4.566945 -6.762 12.70882 -25.2099 -0 6.012907 -0 -0.7560693 -21.37384 22.68143 -3.817256 -2.517412 3.21605 1.925282 7.268373 -7.457529 1.009909 24.07995 7.572414 3.76647 -22.24076 8.691418 6.081973 -18.53368 10.83641 86.36325 35.97804 -20.84145 -0 0 15.71587 -7.972895 7.933399 4.702604 4.364434 -18.18173 -3.178876 -100.0896 41.23277 27.57247 0 0 -19.28603 -11.57016 17.96057 27.12983
0.1190928 103.4214 0.8864851 1.240619 -2.434891 0.1171835 2.609321 -14.29594 6.905185 -0 38.31056 -0 -6.161686 -16.68821 -4.655174 -6.793628 12.50042 -25.15547 -0 6.193381 -0 -0.4949933 -20.89304 22.86361 -3.853881 -2.624712 3.183418 1.963406 7.389529 -7.528941 0.9078476 24.08697 7.607065 3.71848 -22.17167 8.643826 6.299573 -18.56125 10.94715 86.21335 36.27809 -20.7099 -0 0 15.68968 -8.18973 8.177038 4.88903 4.199995 -18.12152 -3.187781 -99.96192 40.9149 27.56463 0 0 -18.86473 -11.44599 18.01517 26.88777
0.2575481 102.9697 2.424398 1.011799 -1.324324 0.212912 2.88097 -19.37027 6.65355 -0 32.28384 -0 -5.660209 -14.00341 -4.799506 -6.453207 13.57067 -23.49291 -0 4.831704 -0 -0.2143296 -22.5457 21.80514 -3.809664 -2.187818 3.289691 2.227014 7.513223 -7.920311 1.037996 23.10503 7.723992 3.919551 -22.825 8.765003 6.036408 -18.30138 10.87028 86.72993 35.82555 -21.5576 -0 0 15.16382 -8.806563 8.860798 5.25084 5.04678 -19.20024 -3.060355 -97.24632 39.06416 24.59996 0 0 -20.75031 -8.939853 16.85153 24.46266
0.3927918 102.22 4.528115 0.7992264 -0.4452431 0.4164533 3.114966 -23.46848 6.196402 -0 27.26784 -0 -5.280003 -11.64399 -4.829716 -6.157961 14.59565 -22.13082 -0 4.176539 -0 -0.4958243 -23.83554 20.58127 -3.701552 -1.787839 3.275026 2.395168 7.515207 -8.174509 1.157431 22.40761 7.834188 4.072492 -23.25405 8.883346 5.761388 -17.94683 10.77178 87.2339 35.44455 -22.28084 -0 0 14.50854 -9.403341 9.452983 5.536245 5.697764 -20.0205 -2.980456 -95.1202 37.69864 22.20403 0 0 -22.56893 -7.222861 15.95996 22.80638
0.5140284 101.2761 7.113804 0.4977178 0.4728204 0.7034891 3.608817 -27.02049 5.953136 -0 22.90008 -0 -5.132338 -9.490488 -4.7042 -5.864131 15.47407 -21.23489 -0 4.17246 -0 -1.053328 -24.91164 19.45692 -3.467609 -1.437211 3.260944 2.530847 7.434076 -8.318408 1.307315 21.81519 7.921168 4.234748 -23.84319 9.047015 5.498002 -17.69632 10.67543 87.69632 35.12546 -22.9165 -0 0 14.00643 -9.513433 9.754588 5.579494 6.211249 -20.59864 -2.842088 -93.94874 36.87452 20.89419 0 0 -24.1158 -6.078139 15.29526 21.87865
0.6146873 100.2248 10.18667 0.09739994 1.380388 1.081657 4.235642 -30.16855 5.691288 -0 19.25322 -0 -5.145185 -7.319603 -4.483055 -5.512759 16.22365 -20.39831 -0 4.837587 -0 -1.99023 -25.61141 18.0771 -3.111637 -1.074825 3.15072 2.643516 7.305143 -8.416783 1.429944 21.30433 8.018736 4.38584 -24.42645 9.20158 5.301619 -17.39138 10.60439 88.09984 34.94626 -23.43221 -0 0 13.4562 -9.605998 10.07081 5.632062 6.571451 -21.01552 -2.717676 -93.04343 36.19293 19.94057 0 0 -25.41418 -5.178978 14.773 21.2294
0.6935072 99.17572 13.75359 -0.4354484 2.260102 1.550137 5.035759 -32.71697 5.464684 -0 16.59304 -0 -5.358728 -5.247078 -4.172296 -5.077528 16.73045 -19.57675 -0 6.333104 -0 -3.276019 -25.73567 16.43686 -2.60005 -0.7129116 2.937566 2.749989 7.149038 -8.484303 1.500337 20.87395 8.118811 4.503011 -25.02343 9.32698 5.19501 -17.05166 10.58472 88.41144 34.91847 -23.7719 -0 0 12.89007 -9.686639 10.40286 5.734065 6.725306 -21.2338 -2.610133 -92.42515 35.57781 19.40956 0 0 -26.27478 -4.459142 14.38344 20.78703
0.7541882 98.24486 17.83601 -1.104646 3.041039 2.093574 5.973274 -34.39352 5.251726 -0 15.07874 -0 -5.757312 -3.464707 -3.817495 -4.53857 16.91559 -18.64678 -0 8.881674 -0 -4.886664 -25.02773 14.50295 -1.916371 -0.373583 2.612184 2.866228 6.987578 -8.544517 1.485347 20.53756 8.208226 4.544601 -25.57711 9.384275 5.184095 -16.65604 10.63705 88.61478 35.01762 -23.90165 -0 0 12.28298 -9.857887 10.80065 5.960218 6.62481 -21.23686 -2.537923 -91.97651 34.88775 19.18363 0 0 -26.57727 -3.836078 14.07782 20.42073
0.8076617 97.54924 22.45342 -1.868692 3.618527 2.665007 6.963047 -34.81502 5.042107 -0 14.7755 -0 -6.277991 -2.286989 -3.493423 -3.9098 16.69658 -17.52941 -0 12.76878 -0 -6.701768 -23.23539 12.37448 -1.078964 -0.1051473 2.210309 3.005144 6.84708 -8.612603 1.360421 20.31746 8.265301 4.469507 -26.00659 9.331598 5.26793 -16.19487 10.77442 88.69372 35.20092 -23.81135 -0 0 11.62393 -10.18143 11.28904 6.347028 6.240279 -21.01625 -2.508493 -91.60989 34.02107 19.14933 0 0 -26.241 -3.259288 13.79241 20.02479
0.8710689 97.19053 27.61437 -2.607618 3.842635 3.171478 7.823782 -33.60753 4.796497 -0 15.50496 -0 -6.777949 -2.022014 -3.31261 -3.253796 16.02025 -16.16956 -0 18.33961 -0 -8.504321 -20.22095 10.28147 -0.1723773 0.0358319 1.826756 3.159877 6.770593 -8.687586 1.12657 20.24087 8.265216 4.26119 -26.16671 9.128368 5.444199 -15.64522 10.99256 88.64673 35.41727 -23.54558 -0 0 10.87465 -10.74325 11.91083 6.892773 5.597935 -20.61912 -2.5301 -91.17505 32.89385 19.06854 0 0 -25.32998 -2.678305 13.45073 19.4758
0.9605596 97.24477 33.29699 -3.121759 3.534962 3.476719 8.323648 -30.57451 4.484132 -0 16.81622 -0 -7.067606 -2.786202 -3.380404 -2.688486 14.82885 -14.58593 -0 25.94077 -0 -10.00759 -16.13634 8.589726 0.6423599 0.02377524 1.623967 3.283927 6.828237 -8.728876 0.8385055 20.34086 8.181733 3.959297 -25.87468 8.761034 5.709643 -14.99054 11.26409 88.49328 35.62542 -23.19454 -0 0 9.980839 -11.6373 12.70971 7.532069 4.801789 -20.16408 -2.617118 -90.52222 31.49003 18.64612 0 0 -24.08657 -2.052596 13.01175 18.67269
